<svg width="11" height="11" viewBox="0 0 11 11" fill="none" xmlns="http://www.w3.org/2000/svg">
<path d="M7.585 5.40179L10.7122 2.33044C11.0959 1.95354 11.0959 1.34247 10.7122 0.965262L10.0172 0.282673C9.63344 -0.0942243 9.01125 -0.0942243 8.62719 0.282673L5.5 3.35402L2.37281 0.282673C1.98906 -0.0942243 1.36688 -0.0942243 0.982813 0.282673L0.287813 0.965262C-0.0959375 1.34216 -0.0959375 1.95324 0.287813 2.33044L3.415 5.40179L0.287813 8.47313C-0.0959375 8.85003 -0.0959375 9.4611 0.287813 9.83831L0.982813 10.5209C1.36656 10.8978 1.98906 10.8978 2.37281 10.5209L5.5 7.44955L8.62719 10.5209C9.01094 10.8978 9.63344 10.8978 10.0172 10.5209L10.7122 9.83831C11.0959 9.46141 11.0959 8.85034 10.7122 8.47313L7.585 5.40179Z" fill="white"/>
</svg>
